<svg width="85" height="85" viewBox="0 0 85 85" fill="none" xmlns="http://www.w3.org/2000/svg">
<path d="M51.607 3.03564H33.3927C30.0396 3.03564 27.3213 5.75391 27.3213 9.10707V12.1428C27.3213 15.4959 30.0396 18.2142 33.3927 18.2142H51.607C54.9601 18.2142 57.6784 15.4959 57.6784 12.1428V9.10707C57.6784 5.75391 54.9601 3.03564 51.607 3.03564Z" stroke="white" stroke-width="5" stroke-linecap="round" stroke-linejoin="round"/>
<path d="M59.1964 9.10718H68.3036C69.9137 9.10718 71.4583 9.74686 72.5967 10.8854C73.7351 12.0241 74.375 13.5683 74.375 15.1786V75.8929C74.375 77.503 73.7351 79.0476 72.5967 80.186C71.4583 81.3244 69.9137 81.9643 68.3036 81.9643H16.6964C15.0862 81.9643 13.5419 81.3244 12.4033 80.186C11.2647 79.0476 10.625 77.503 10.625 75.8929V15.1786C10.625 13.5683 11.2647 12.0241 12.4033 10.8854C13.5419 9.74686 15.0862 9.10718 16.6964 9.10718H25.8036" stroke="white" stroke-width="5" stroke-linecap="round" stroke-linejoin="round"/>
<path d="M30.3569 54.6428L39.4641 60.7142L57.6784 36.4285" stroke="white" stroke-width="5" stroke-linecap="round" stroke-linejoin="round"/>
</svg>
