<svg width="86" height="86" viewBox="0 0 86 86" fill="none" xmlns="http://www.w3.org/2000/svg">
<path d="M13.1587 82.484V67.4263H28.2167" stroke="white" stroke-width="5" stroke-linecap="round" stroke-linejoin="round"/>
<path d="M81.7619 36.1379C85.5086 56.0624 73.3159 75.8151 53.4088 81.1494C38.1727 85.2319 22.6268 79.7403 13.1587 68.3624" stroke="white" stroke-width="5" stroke-linecap="round" stroke-linejoin="round"/>
<path d="M4.78975 50.5278C1.04305 30.6033 13.236 10.8504 33.1429 5.51636C48.378 1.43415 63.9228 6.92473 73.3912 18.301" stroke="white" stroke-width="5" stroke-linecap="round" stroke-linejoin="round"/>
<path d="M73.3904 4.18311V19.2412H58.3325" stroke="white" stroke-width="5" stroke-linecap="round" stroke-linejoin="round"/>
<path d="M25.6053 45.3585C23.4747 44.9878 23.4747 41.9292 25.6053 41.5585C33.3243 40.2156 39.4636 34.3363 41.1391 26.6826L41.2675 26.0959C41.7285 23.9902 44.7268 23.9771 45.2061 26.0787L45.3621 26.7624C47.0995 34.38 53.2405 40.2096 60.938 41.5488C63.0793 41.9214 63.0793 44.9956 60.938 45.3682C53.2405 46.7073 47.0995 52.5371 45.3621 60.1546L45.2061 60.8383C44.7268 62.9401 41.7285 62.9267 41.2675 60.8211L41.1391 60.2344C39.4636 52.5807 33.3243 46.7014 25.6053 45.3585Z" stroke="white" stroke-width="5" stroke-linecap="round" stroke-linejoin="round"/>
</svg>
