<svg width="86" height="86" viewBox="0 0 86 86" fill="none" xmlns="http://www.w3.org/2000/svg">
<g clip-path="url(#clip0_899_1337)">
<path d="M32.2824 14.417L34.8931 7.67771C35.3334 6.53667 36.1081 5.5552 37.1156 4.86185C38.1231 4.16851 39.3165 3.7956 40.5395 3.79199H45.5181C46.7411 3.7956 47.9346 4.16851 48.9421 4.86185C49.9496 5.5552 50.7242 6.53667 51.1645 7.67771L53.7752 14.417L62.6393 19.517L69.8036 18.4241C70.9966 18.2622 72.2109 18.4586 73.2922 18.9883C74.3729 19.518 75.2721 20.3572 75.875 21.3991L78.3036 25.6491C78.9259 26.7077 79.2131 27.93 79.1263 29.1549C79.0394 30.3797 78.5835 31.5495 77.8179 32.5098L73.3857 38.1563V48.3563L77.9393 54.0027C78.7049 54.963 79.1609 56.1328 79.2477 57.3577C79.3345 58.5825 79.0473 59.8049 78.425 60.8634L75.9964 65.1134C75.3935 66.1553 74.4944 66.9943 73.4137 67.5244C72.3323 68.0538 71.118 68.2505 69.925 68.0884L62.7607 66.9956L53.8967 72.0956L51.286 78.8349C50.8457 79.9757 50.0711 80.9574 49.0635 81.6508C48.056 82.3441 46.8626 82.7169 45.6395 82.7206H40.5395C39.3165 82.7169 38.1231 82.3441 37.1156 81.6508C36.1081 80.9574 35.3334 79.9757 34.8931 78.8349L32.2824 72.0956L23.4181 66.9956L16.2538 68.0884C15.0609 68.2505 13.8467 68.0538 12.7657 67.5244C11.6846 66.9943 10.7855 66.1553 10.1824 65.1134L7.75382 60.8634C7.1315 59.8049 6.84481 58.5825 6.93151 57.3577C7.01821 56.1328 7.47429 54.963 8.23954 54.0027L12.6717 48.3563V38.1563L8.11811 32.5098C7.35287 31.5495 6.89678 30.3797 6.81008 29.1549C6.72338 27.93 7.01007 26.7077 7.63239 25.6491L10.061 21.3991C10.664 20.3572 11.5632 19.518 12.6442 18.9883C13.7253 18.4586 14.9395 18.2622 16.1324 18.4241L23.2967 19.517L32.2824 14.417ZM30.886 43.2563C30.886 45.6579 31.5981 48.0056 32.9324 50.0025C34.2667 51.9994 36.1631 53.5557 38.3819 54.4748C40.6008 55.3939 43.0423 55.6343 45.3978 55.1658C47.7532 54.6973 49.9169 53.5408 51.6152 51.8426C53.3133 50.1444 54.4698 47.9807 54.9384 45.6252C55.4069 43.2698 55.1665 40.8283 54.2474 38.6094C53.3283 36.3906 51.7719 34.4941 49.775 33.1599C47.7781 31.8256 45.4304 31.1134 43.0288 31.1134C39.8084 31.1134 36.7198 32.3927 34.4425 34.67C32.1653 36.9472 30.886 40.0358 30.886 43.2563Z" stroke="white" stroke-width="5" stroke-linecap="round" stroke-linejoin="round"/>
</g>
<defs>
<clipPath id="clip0_899_1337">
<rect width="85" height="85" fill="white" transform="translate(0.52832 0.756348)"/>
</clipPath>
</defs>
</svg>
